<?xml version="1.0" encoding="UTF-8"?>
<svg width="256px" height="256px" viewBox="0 0 256 256" version="1.1" xmlns="http://www.w3.org/2000/svg" xmlns:xlink="http://www.w3.org/1999/xlink">
    <!-- Generator: Sketch 55.2 (78181) - https://sketchapp.com -->
    <title>Artboard Outlines</title>
    <desc>Created with Sketch.</desc>
    <g id="Artboard-Outlines" stroke="none" stroke-width="1" fill="none" fill-rule="evenodd">
        <circle id="Oval" fill="#000000" cx="128" cy="128" r="128"></circle>
        <path d="M132.84,55.32 C145.840065,55.32 156.153295,58.4833017 163.78,64.81 C171.406705,71.1366983 175.22,80.0199428 175.22,91.46 C175.22,99.0867048 173.57335,105.803304 170.28,111.61 C166.98665,117.416696 162.913358,121.96665 158.06,125.26 C153.206642,128.55335 147.313368,131.23999 140.38,133.32 C128.766609,136.786684 115.680073,138.52 101.12,138.52 C101.640003,147.706713 104.499974,155.116638 109.7,160.75 C114.900026,166.383361 122.87328,169.2 133.62,169.2 C144.36672,169.2 155.11328,165.386705 165.86,157.76 L175.74,178.82 C172.273316,181.940016 166.423374,185.14665 158.19,188.44 C149.956626,191.73335 140.553386,193.38 129.98,193.38 C108.833228,193.38 93.3200494,187.530058 83.44,175.83 C73.5599506,164.129942 68.62,148.053436 68.62,127.6 C68.62,107.146564 74.253277,89.986736 85.52,76.12 C96.786723,62.253264 112.559899,55.32 132.84,55.32 Z M120.88,114.86 C127.293365,113.646661 133.18664,111.090019 138.56,107.19 C143.93336,103.289981 146.62,98.6533602 146.62,93.28 C146.62,82.7066138 141.420052,77.42 131.02,77.42 C121.313285,77.42 113.860026,81.2766281 108.66,88.99 C103.459974,96.7033719 100.600003,105.93328 100.08,116.68 C107.706705,116.506666 114.639969,115.900005 120.88,114.86 Z" id="e" fill="#FFFFFF" fill-rule="nonzero"></path>
    </g>
</svg>